<svg width="133" height="46" viewBox="0 0 133 46" fill="none" xmlns="http://www.w3.org/2000/svg">
<path d="M31.6991 11.1079C30.4364 14.7373 29.2236 18.1028 28.0607 21.2043C26.9309 24.2728 25.8178 27.1929 24.7213 29.9645C23.6248 32.736 22.5283 35.3921 21.4318 37.9327C20.3685 40.4404 19.272 42.9315 18.1422 45.4061H13.6067C12.4769 42.9315 11.3638 40.4404 10.2673 37.9327C9.20403 35.3921 8.10752 32.736 6.97779 29.9645C5.88128 27.1929 4.75154 24.2728 3.58858 21.2043C2.42561 18.1028 1.22942 14.7373 0 11.1079H5.33302C7.12731 16.3211 8.88837 21.3363 10.6162 26.1536C12.344 30.9708 14.1217 35.4911 15.9492 39.7145C17.7767 35.5241 19.5544 31.0203 21.2822 26.203C23.0101 21.3528 24.7545 16.3211 26.5156 11.1079H31.6991Z" fill="#0D0E20"/>
<path d="M30.0208 32.5876C30.0208 30.3109 30.3531 28.3312 31.0177 26.6485C31.6822 24.9327 32.5627 23.514 33.6592 22.3921C34.7558 21.2703 36.0184 20.4289 37.4472 19.868C38.876 19.3071 40.338 19.0266 41.8332 19.0266C45.3221 19.0266 47.9969 20.1155 49.8577 22.2931C51.7184 24.4378 52.6488 27.7208 52.6488 32.1421C52.6488 32.3401 52.6488 32.6041 52.6488 32.934C52.6488 33.231 52.6322 33.5114 52.5989 33.7754H34.8554C35.0548 36.448 35.8357 38.4772 37.198 39.8629C38.5603 41.2487 40.6869 41.9416 43.5777 41.9416C45.2058 41.9416 46.5681 41.8096 47.6647 41.5457C48.7944 41.2487 49.6417 40.9683 50.2066 40.7043L50.8545 44.5647C50.2896 44.8617 49.2928 45.1751 47.864 45.5051C46.4685 45.835 44.8735 46 43.0793 46C40.8198 46 38.8594 45.6701 37.198 45.0102C35.5698 44.3173 34.2241 43.3769 33.1608 42.1891C32.0976 41.0013 31.3001 39.599 30.7684 37.9822C30.27 36.3325 30.0208 34.5343 30.0208 32.5876ZM47.8142 30.0635C47.8474 27.9848 47.3158 26.2855 46.2193 24.9657C45.156 23.6129 43.6773 22.9365 41.7834 22.9365C40.7201 22.9365 39.7731 23.151 38.9424 23.5799C38.145 23.9759 37.4638 24.5038 36.8989 25.1637C36.3341 25.8236 35.8855 26.5825 35.5532 27.4404C35.2542 28.2982 35.0548 29.1726 34.9551 30.0635H47.8142Z" fill="#0D0E20"/>
<path d="M66.1854 31.2513C67.1822 32.0102 68.2289 32.9505 69.3254 34.0723C70.4551 35.1942 71.5516 36.415 72.6149 37.7348C73.7114 39.0216 74.7415 40.3414 75.7051 41.6942C76.6687 43.014 77.4827 44.2513 78.1473 45.4061H72.7146C72.0168 44.2513 71.2027 43.0799 70.2724 41.8921C69.3752 40.6713 68.4282 39.5165 67.4314 38.4277C66.4346 37.3058 65.4211 36.283 64.3911 35.3591C63.361 34.4353 62.3808 33.6599 61.4505 33.033V45.4061H56.8152V7.79188L61.4505 7V30.4594C62.2479 29.6675 63.1284 28.7931 64.092 27.8363C65.0556 26.8794 66.0026 25.9061 66.933 24.9162C67.8634 23.9264 68.7439 22.986 69.5746 22.0952C70.4053 21.1713 71.1197 20.3629 71.7178 19.67H77.1505C76.3862 20.4949 75.5555 21.4023 74.6584 22.3921C73.7613 23.382 72.8309 24.3883 71.8673 25.4112C70.9037 26.401 69.9235 27.4074 68.9267 28.4302C67.9631 29.42 67.0493 30.3604 66.1854 31.2513Z" fill="#0D0E20"/>
<path d="M84.6995 19.67H94.5182V23.5305H84.6995V35.4086C84.6995 36.6954 84.7992 37.7678 84.9985 38.6256C85.1979 39.4505 85.4969 40.1104 85.8957 40.6053C86.2944 41.0673 86.7928 41.3972 87.3909 41.5952C87.989 41.7931 88.6868 41.8921 89.4843 41.8921C90.8798 41.8921 91.9929 41.7437 92.8236 41.4467C93.6875 41.1167 94.2856 40.8858 94.6179 40.7538L95.515 44.5647C95.0499 44.7957 94.2358 45.0761 93.0728 45.4061C91.9099 45.769 90.5808 45.9505 89.0855 45.9505C87.3245 45.9505 85.8624 45.736 84.6995 45.3071C83.5697 44.8452 82.656 44.1688 81.9582 43.2779C81.2604 42.3871 80.762 41.2982 80.463 40.0114C80.1972 38.6916 80.0642 37.1739 80.0642 35.4581V12.4937L84.6995 11.7018V19.67Z" fill="#0D0E20"/>
<path d="M107.494 19.1256C107.893 19.1256 108.341 19.1586 108.84 19.2246C109.371 19.2576 109.886 19.3236 110.385 19.4226C110.883 19.4886 111.332 19.5711 111.731 19.67C112.163 19.736 112.478 19.802 112.678 19.868L111.88 23.8769C111.515 23.7449 110.9 23.5964 110.036 23.4315C109.205 23.2335 108.125 23.1345 106.796 23.1345C105.932 23.1345 105.068 23.2335 104.205 23.4315C103.374 23.5964 102.826 23.7119 102.56 23.7779V45.4061H97.9246V20.7589C99.0211 20.3629 100.383 20 102.012 19.67C103.64 19.3071 105.467 19.1256 107.494 19.1256Z" fill="#0D0E20"/>
<path d="M123.43 42.0901C124.527 42.0901 125.491 42.0736 126.321 42.0406C127.185 41.9746 127.9 41.8756 128.464 41.7437V34.0723C128.132 33.9074 127.584 33.7754 126.82 33.6764C126.089 33.5444 125.192 33.4784 124.128 33.4784C123.43 33.4784 122.683 33.5279 121.885 33.6269C121.121 33.7259 120.407 33.9404 119.742 34.2703C119.111 34.5673 118.579 34.9962 118.147 35.5571C117.715 36.085 117.499 36.7944 117.499 37.6853C117.499 39.335 118.031 40.4898 119.094 41.1497C120.158 41.7766 121.603 42.0901 123.43 42.0901ZM123.032 19.0266C124.892 19.0266 126.454 19.2741 127.717 19.769C129.013 20.231 130.043 20.9074 130.807 21.7982C131.604 22.6561 132.169 23.6954 132.502 24.9162C132.834 26.1041 133 27.4239 133 28.8756V44.9607C132.601 45.0266 132.036 45.1256 131.305 45.2576C130.608 45.3566 129.81 45.4556 128.913 45.5546C128.016 45.6536 127.036 45.736 125.972 45.802C124.942 45.901 123.912 45.9505 122.882 45.9505C121.42 45.9505 120.074 45.802 118.845 45.5051C117.616 45.2081 116.552 44.7462 115.655 44.1193C114.758 43.4594 114.06 42.6015 113.562 41.5457C113.063 40.4898 112.814 39.2195 112.814 37.7348C112.814 36.316 113.097 35.0952 113.662 34.0723C114.26 33.0495 115.057 32.2246 116.054 31.5977C117.051 30.9708 118.214 30.5089 119.543 30.2119C120.872 29.915 122.268 29.7665 123.73 29.7665C124.195 29.7665 124.677 29.7995 125.175 29.8655C125.673 29.8985 126.139 29.9645 126.57 30.0635C127.036 30.1294 127.434 30.1954 127.767 30.2614C128.099 30.3274 128.332 30.3769 128.464 30.4099V29.1231C128.464 28.3642 128.381 27.6218 128.215 26.8959C128.049 26.1371 127.75 25.4772 127.318 24.9162C126.886 24.3223 126.288 23.8604 125.524 23.5305C124.793 23.1675 123.829 22.986 122.633 22.986C121.105 22.986 119.759 23.1015 118.596 23.3325C117.466 23.5305 116.619 23.7449 116.054 23.9759L115.506 20.165C116.104 19.901 117.101 19.6536 118.496 19.4226C119.892 19.1586 121.404 19.0266 123.032 19.0266Z" fill="#0D0E20"/>
<path d="M15.5 0L16.9855 4.74441L21 6.5L16.9855 8.25559L15.5 13L14.0145 8.25559L10 6.5L14.0145 4.74441L15.5 0Z" fill="#0D0E20" fill-opacity="0.4"/>
</svg>
