<svg width="113" height="40" viewBox="0 0 113 40" fill="none" xmlns="http://www.w3.org/2000/svg">
<path d="M26.9323 10.4759C25.8595 13.547 24.8291 16.3947 23.841 19.019C22.8812 21.6155 21.9354 24.0863 21.0038 26.4315C20.0722 28.7766 19.1406 31.0241 18.2089 33.1739C17.3056 35.2957 16.3739 37.4036 15.4141 39.4975H11.5606C10.6007 37.4036 9.65498 35.2957 8.72336 33.1739C7.81997 31.0241 6.88835 28.7766 5.92849 26.4315C4.99687 24.0863 4.03702 21.6155 3.04894 19.019C2.06086 16.3947 1.04454 13.547 0 10.4759H4.53106C6.05553 14.8871 7.55177 19.1307 9.01978 23.2069C10.4878 27.283 11.9981 31.1079 13.5508 34.6815C15.1035 31.1358 16.6139 27.3249 18.0819 23.2487C19.5499 19.1447 21.032 14.8871 22.5283 10.4759H26.9323Z" fill="white"/>
<path d="M25.5064 28.651C25.5064 26.7246 25.7887 25.0495 26.3533 23.6256C26.918 22.1739 27.6661 20.9733 28.5977 20.0241C29.5293 19.0749 30.6021 18.3629 31.816 17.8883C33.03 17.4137 34.2721 17.1764 35.5425 17.1764C38.5068 17.1764 40.7793 18.0977 42.3603 19.9404C43.9412 21.7551 44.7317 24.533 44.7317 28.2741C44.7317 28.4416 44.7317 28.665 44.7317 28.9442C44.7317 29.1954 44.7176 29.4327 44.6893 29.6561H29.614C29.7834 31.9175 30.4468 33.6345 31.6043 34.8071C32.7618 35.9797 34.5685 36.566 37.0246 36.566C38.408 36.566 39.5654 36.4543 40.497 36.231C41.4569 35.9797 42.1768 35.7424 42.6567 35.519L43.2072 38.7855C42.7273 39.0368 41.8804 39.302 40.6664 39.5812C39.4807 39.8604 38.1256 40 36.6012 40C34.6815 40 33.0158 39.7208 31.6043 39.1624C30.221 38.5761 29.0776 37.7805 28.1742 36.7754C27.2709 35.7703 26.5933 34.5838 26.1416 33.2157C25.7181 31.8198 25.5064 30.2982 25.5064 28.651ZM40.6241 26.5152C40.6523 24.7563 40.2006 23.3185 39.269 22.2018C38.3656 21.0571 37.1093 20.4848 35.5002 20.4848C34.5968 20.4848 33.7922 20.6662 33.0864 21.0292C32.4089 21.3642 31.8301 21.8109 31.3502 22.3693C30.8703 22.9277 30.4892 23.5698 30.2069 24.2957C29.9528 25.0216 29.7834 25.7614 29.6987 26.5152H40.6241Z" fill="white"/>
<path d="M56.2327 27.5203C57.0796 28.1624 57.9689 28.9581 58.9005 29.9074C59.8604 30.8566 60.792 31.8896 61.6954 33.0063C62.627 34.0952 63.5022 35.2119 64.3209 36.3566C65.1395 37.4733 65.8312 38.5203 66.3958 39.4975H61.7801C61.1872 38.5203 60.4956 37.5292 59.7051 36.5241C58.9429 35.4911 58.1383 34.514 57.2914 33.5926C56.4444 32.6434 55.5834 31.7779 54.7082 30.9962C53.8331 30.2145 53.0003 29.5584 52.2098 29.0279V39.4975H48.2716V7.67005L52.2098 7V26.8503C52.8873 26.1802 53.6354 25.4404 54.4541 24.6307C55.2728 23.8211 56.0774 22.9975 56.8679 22.1599C57.6584 21.3223 58.4065 20.5266 59.1122 19.7728C59.818 18.9911 60.425 18.3071 60.9331 17.7208H65.5489C64.8996 18.4188 64.1938 19.1865 63.4316 20.0241C62.6693 20.8617 61.8789 21.7132 61.0602 22.5787C60.2415 23.4162 59.4087 24.2678 58.5617 25.1332C57.743 25.9708 56.9667 26.7665 56.2327 27.5203Z" fill="white"/>
<path d="M71.9627 17.7208H80.305V20.9873H71.9627V31.0381C71.9627 32.1269 72.0474 33.0343 72.2168 33.7602C72.3862 34.4581 72.6403 35.0165 72.979 35.4353C73.3178 35.8261 73.7413 36.1053 74.2494 36.2728C74.7576 36.4404 75.3504 36.5241 76.028 36.5241C77.2137 36.5241 78.1594 36.3985 78.8652 36.1472C79.5992 35.868 80.1073 35.6726 80.3897 35.5609L81.1519 38.7855C80.7567 38.981 80.065 39.2183 79.0769 39.4975C78.0888 39.8046 76.9596 39.9581 75.6892 39.9581C74.193 39.9581 72.9508 39.7766 71.9627 39.4137C71.0029 39.0228 70.2265 38.4505 69.6337 37.6967C69.0408 36.9429 68.6174 36.0216 68.3633 34.9327C68.1374 33.816 68.0245 32.5317 68.0245 31.0799V11.6485L71.9627 10.9784V17.7208Z" fill="white"/>
<path d="M91.3296 17.2602C91.6683 17.2602 92.0495 17.2881 92.4729 17.3439C92.9246 17.3718 93.3622 17.4277 93.7857 17.5114C94.2091 17.5673 94.5902 17.6371 94.929 17.7208C95.296 17.7766 95.5642 17.8325 95.7336 17.8883L95.0561 21.2805C94.7455 21.1688 94.2232 21.0431 93.4892 20.9036C92.7835 20.736 91.866 20.6523 90.7367 20.6523C90.0027 20.6523 89.2687 20.736 88.5347 20.9036C87.8289 21.0431 87.3631 21.1409 87.1373 21.1967V39.4975H83.1991V18.6421C84.1307 18.3071 85.2882 18 86.6715 17.7208C88.0548 17.4137 89.6075 17.2602 91.3296 17.2602Z" fill="white"/>
<path d="M104.869 36.6916C105.801 36.6916 106.62 36.6777 107.326 36.6497C108.06 36.5939 108.667 36.5102 109.146 36.3985V29.9074C108.864 29.7678 108.398 29.6561 107.749 29.5723C107.128 29.4607 106.366 29.4048 105.462 29.4048C104.869 29.4048 104.234 29.4467 103.557 29.5305C102.907 29.6142 102.3 29.7957 101.736 30.0749C101.199 30.3261 100.748 30.6891 100.381 31.1637C100.014 31.6104 99.8303 32.2107 99.8303 32.9645C99.8303 34.3604 100.282 35.3376 101.185 35.8959C102.089 36.4264 103.317 36.6916 104.869 36.6916ZM104.531 17.1764C106.112 17.1764 107.439 17.3858 108.511 17.8046C109.612 18.1954 110.487 18.7678 111.137 19.5216C111.814 20.2475 112.294 21.1269 112.577 22.1599C112.859 23.165 113 24.2817 113 25.5102V39.1206C112.661 39.1764 112.181 39.2602 111.56 39.3718C110.967 39.4556 110.29 39.5393 109.528 39.6231C108.765 39.7069 107.933 39.7766 107.029 39.8325C106.154 39.9162 105.279 39.9581 104.404 39.9581C103.162 39.9581 102.018 39.8325 100.974 39.5812C99.9291 39.3299 99.0257 38.9391 98.2635 38.4086C97.5012 37.8503 96.9084 37.1244 96.4849 36.231C96.0615 35.3376 95.8497 34.2627 95.8497 33.0063C95.8497 31.8058 96.0897 30.7728 96.5696 29.9074C97.0778 29.0419 97.7553 28.3439 98.6022 27.8134C99.4492 27.283 100.437 26.8921 101.566 26.6409C102.696 26.3896 103.881 26.264 105.124 26.264C105.519 26.264 105.928 26.2919 106.352 26.3477C106.775 26.3756 107.17 26.4315 107.537 26.5152C107.933 26.5711 108.271 26.6269 108.554 26.6827C108.836 26.7386 109.034 26.7805 109.146 26.8084V25.7195C109.146 25.0774 109.076 24.4492 108.935 23.835C108.794 23.1929 108.54 22.6345 108.173 22.1599C107.806 21.6574 107.297 21.2665 106.648 20.9873C106.027 20.6802 105.208 20.5267 104.192 20.5267C102.893 20.5267 101.75 20.6244 100.762 20.8198C99.802 20.9873 99.0822 21.1688 98.6022 21.3642L98.1364 18.1396C98.6446 17.9162 99.4915 17.7069 100.677 17.5114C101.863 17.2881 103.147 17.1764 104.531 17.1764Z" fill="white"/>
<path d="M13.5 0L14.9855 4.74441L19 6.5L14.9855 8.25559L13.5 13L12.0145 8.25559L8 6.5L12.0145 4.74441L13.5 0Z" fill="white" fill-opacity="0.4"/>
</svg>
